<svg width="155" height="155" viewBox="0 0 155 155" fill="none" xmlns="http://www.w3.org/2000/svg">
<path d="M116.417 9.65384C114.657 9.65384 113.145 10.8267 112.683 12.5246C110.091 22.2167 101.692 53.5814 99.718 60.8977C99.472 61.8245 99.6251 62.7814 100.18 63.5524C104.686 69.8817 109.287 86.0862 93.1099 95.9041C91.6581 96.768 90.518 98.1569 89.9931 99.7618C88.6042 104.114 82.8327 111.925 79.9592 115.474C79.8663 115.597 78.9722 116.77 78.6332 117.172C74.0346 122.637 68.0143 125.598 59.7111 125.598C47.2084 125.598 40.048 117.232 40.048 106.736V106.118C41.0978 106.025 42.2078 105.932 43.2905 105.809C49.5569 105.222 56.2252 104.358 62.4916 103.341C74.1604 101.457 82.5265 98.9881 88.4539 95.9943C89.4736 95.4994 90.3977 94.9745 91.2644 94.4496C99.1657 89.5721 101.604 83.3987 101.604 75.9594C101.604 71.9458 100.555 68.3342 98.5807 65.1873C98.2417 64.5694 97.8097 63.9516 97.3777 63.3665C92.2842 56.7911 83.0842 52.7475 71.8173 52.7475C71.3553 52.7475 70.8604 52.7475 70.3983 52.7776C63.607 52.9635 56.7856 54.5684 50.4263 57.3762C50.3334 57.3762 50.2404 57.4391 50.1474 57.4993C32.1494 65.4935 17.8258 83.1198 17.8258 105.932C17.8258 117.97 23.5673 128.898 33.3851 135.629C39.1266 139.61 46.3198 142.142 54.5301 142.574C55.394 142.637 56.258 142.667 57.1219 142.667C62.7403 142.667 67.8038 141.956 72.4024 140.567C74.7482 139.889 76.9709 138.992 79.0707 137.942C80.4896 137.232 82.4663 135.783 84.7192 133.899C87.9918 131.151 91.8495 127.447 95.3381 123.649C98.9498 119.665 102.192 115.592 103.92 112.475C104.013 112.136 104.106 111.797 104.199 111.425C112.316 81.2661 127.63 24.1278 127.63 24.1278C127.816 23.2009 128.032 22.3671 128.308 21.5961C130.407 15.2996 137.445 14.0638 140.439 13.8478C141.303 13.785 142.013 13.137 142.229 12.3031L142.877 9.64838H116.423L116.417 9.65384ZM68.8482 68.028C74.2205 68.028 77.6162 69.7559 79.4042 72.2876C80.4541 73.7394 80.9489 75.4973 80.9489 77.351C80.9489 85.0992 75.2075 89.0499 60.2961 91.8277C55.6045 92.7217 50.1392 93.4325 44.5536 93.9875C43.7826 94.0805 43.0089 94.1735 42.2379 94.2336C45.8195 77.9334 57.5184 68.0252 68.8482 68.0252V68.028Z" fill="#687451"/>
<path d="M115.611 142.5H89.1565C87.3958 142.5 85.8839 141.357 85.4218 139.692C85.4218 139.629 85.3918 139.599 85.3918 139.539C85.1457 138.552 85.2687 136.811 85.2687 136.811C94.9444 130.055 97.3094 126.872 102.397 119.228C102.605 118.914 103.07 119.135 102.972 119.499C100.834 127.263 100.533 128.122 101.044 130.744C101.044 130.807 101.074 130.837 101.107 130.897C102.217 135.927 110.214 138.15 113.178 138.366C114.042 138.429 114.752 139.077 114.968 139.878L115.616 142.503L115.611 142.5Z" fill="#687451"/>
</svg>
